<svg width="233" height="232" viewBox="0 0 233 232" fill="none" xmlns="http://www.w3.org/2000/svg">
<rect opacity="0.5" x="0.602478" y="0.00421143" width="231.414" height="231.414" rx="115.707" fill="url(#paint0_linear_1_2)"/>
<path d="M53.0652 98.0748V109.711H50.9572V98.0748H53.0652ZM58.4956 109.865C57.81 109.865 57.1963 109.688 56.6547 109.336C56.113 108.984 55.685 108.472 55.3706 107.802C55.0562 107.132 54.899 106.317 54.899 105.359C54.899 104.389 55.0581 103.571 55.3763 102.904C55.6982 102.234 56.132 101.728 56.6774 101.387C57.2229 101.043 57.8308 100.87 58.5013 100.87C59.0126 100.87 59.4331 100.957 59.7626 101.132C60.0922 101.302 60.3535 101.508 60.5467 101.751C60.7399 101.99 60.8895 102.215 60.9956 102.427H61.0808V98.0748H63.1433V109.711H61.1206V108.336H60.9956C60.8895 108.548 60.7361 108.774 60.5354 109.012C60.3346 109.247 60.0695 109.448 59.7399 109.615C59.4104 109.781 58.9956 109.865 58.4956 109.865ZM59.0695 108.177C59.5051 108.177 59.8763 108.06 60.1831 107.825C60.4899 107.586 60.7229 107.255 60.882 106.83C61.041 106.406 61.1206 105.912 61.1206 105.347C61.1206 104.783 61.041 104.293 60.882 103.876C60.7266 103.459 60.4956 103.135 60.1888 102.904C59.8857 102.673 59.5126 102.558 59.0695 102.558C58.6111 102.558 58.2285 102.677 57.9217 102.916C57.6149 103.154 57.3838 103.484 57.2285 103.904C57.0732 104.325 56.9956 104.806 56.9956 105.347C56.9956 105.893 57.0732 106.38 57.2285 106.808C57.3876 107.232 57.6206 107.567 57.9274 107.813C58.238 108.056 58.6187 108.177 59.0695 108.177ZM69.1987 109.882C68.3237 109.882 67.568 109.7 66.9317 109.336C66.2991 108.969 65.8124 108.45 65.4714 107.779C65.1305 107.105 64.9601 106.311 64.9601 105.399C64.9601 104.501 65.1305 103.713 65.4714 103.035C65.8161 102.353 66.2972 101.823 66.9146 101.444C67.532 101.061 68.2574 100.87 69.0908 100.87C69.6286 100.87 70.1362 100.957 70.6135 101.132C71.0945 101.302 71.5188 101.567 71.8862 101.927C72.2574 102.287 72.5491 102.745 72.7612 103.302C72.9733 103.855 73.0794 104.514 73.0794 105.279V105.91H65.926V104.524H71.1078C71.104 104.13 71.0188 103.779 70.8521 103.472C70.6855 103.162 70.4525 102.918 70.1533 102.74C69.8578 102.561 69.5131 102.472 69.1192 102.472C68.6987 102.472 68.3294 102.575 68.0112 102.779C67.693 102.98 67.4449 103.245 67.2669 103.575C67.0927 103.901 67.0036 104.258 66.9999 104.649V105.859C66.9999 106.366 67.0927 106.802 67.2783 107.166C67.4639 107.526 67.7233 107.802 68.0567 107.995C68.39 108.185 68.7802 108.279 69.2271 108.279C69.5264 108.279 69.7972 108.238 70.0396 108.154C70.282 108.067 70.4923 107.94 70.6703 107.774C70.8483 107.607 70.9828 107.401 71.0737 107.154L72.9942 107.37C72.873 107.878 72.6419 108.321 72.301 108.7C71.9639 109.075 71.532 109.366 71.0055 109.575C70.479 109.779 69.8767 109.882 69.1987 109.882ZM74.8195 109.711V100.984H76.8763V109.711H74.8195ZM75.8535 99.7452C75.5278 99.7452 75.2475 99.6373 75.0126 99.4213C74.7778 99.2017 74.6604 98.9384 74.6604 98.6316C74.6604 98.321 74.7778 98.0577 75.0126 97.8418C75.2475 97.6221 75.5278 97.5123 75.8535 97.5123C76.1831 97.5123 76.4634 97.6221 76.6945 97.8418C76.9293 98.0577 77.0467 98.321 77.0467 98.6316C77.0467 98.9384 76.9293 99.2017 76.6945 99.4213C76.4634 99.6373 76.1831 99.7452 75.8535 99.7452ZM81.5027 109.887C80.9497 109.887 80.4516 109.789 80.0084 109.592C79.569 109.391 79.2205 109.096 78.9629 108.705C78.7091 108.315 78.5822 107.834 78.5822 107.262C78.5822 106.77 78.6731 106.363 78.855 106.041C79.0368 105.719 79.2849 105.461 79.5993 105.268C79.9137 105.075 80.2678 104.929 80.6618 104.83C81.0595 104.728 81.4705 104.654 81.8947 104.609C82.4061 104.556 82.8209 104.508 83.1391 104.467C83.4572 104.421 83.6883 104.353 83.8322 104.262C83.98 104.168 84.0538 104.022 84.0538 103.825V103.791C84.0538 103.363 83.9269 103.031 83.6731 102.796C83.4194 102.561 83.0538 102.444 82.5766 102.444C82.0728 102.444 81.6731 102.554 81.3777 102.774C81.086 102.993 80.8891 103.253 80.7868 103.552L78.8663 103.279C79.0178 102.749 79.2678 102.306 79.6163 101.95C79.9648 101.59 80.3909 101.321 80.8947 101.143C81.3985 100.961 81.9553 100.87 82.5652 100.87C82.9856 100.87 83.4042 100.919 83.8209 101.018C84.2375 101.116 84.6182 101.279 84.9629 101.507C85.3076 101.73 85.5841 102.035 85.7925 102.421C86.0046 102.808 86.1106 103.291 86.1106 103.87V109.711H84.1334V108.512H84.0652C83.9402 108.755 83.7641 108.982 83.5368 109.194C83.3133 109.402 83.0311 109.571 82.6902 109.7C82.3531 109.825 81.9572 109.887 81.5027 109.887ZM82.0368 108.376C82.4497 108.376 82.8076 108.294 83.1106 108.132C83.4137 107.965 83.6466 107.745 83.8095 107.472C83.9762 107.2 84.0595 106.902 84.0595 106.58V105.552C83.9951 105.605 83.8853 105.654 83.73 105.7C83.5784 105.745 83.408 105.785 83.2186 105.819C83.0292 105.853 82.8417 105.883 82.6561 105.91C82.4705 105.936 82.3095 105.959 82.1731 105.978C81.8663 106.02 81.5917 106.088 81.3493 106.183C81.1069 106.277 80.9156 106.41 80.7754 106.58C80.6353 106.747 80.5652 106.963 80.5652 107.228C80.5652 107.607 80.7034 107.893 80.98 108.086C81.2565 108.279 81.6088 108.376 82.0368 108.376ZM95.0766 103.291L93.2016 103.495C93.1485 103.306 93.0557 103.128 92.9231 102.961C92.7944 102.794 92.6201 102.66 92.4004 102.558C92.1807 102.455 91.9118 102.404 91.5936 102.404C91.1656 102.404 90.8057 102.497 90.5141 102.683C90.2262 102.868 90.0841 103.109 90.0879 103.404C90.0841 103.658 90.1769 103.865 90.3663 104.024C90.5595 104.183 90.8777 104.313 91.3209 104.416L92.8095 104.734C93.6353 104.912 94.2489 105.194 94.6504 105.58C95.0557 105.967 95.2603 106.472 95.2641 107.097C95.2603 107.647 95.0993 108.132 94.7811 108.552C94.4667 108.969 94.0292 109.294 93.4686 109.529C92.908 109.764 92.2641 109.882 91.5368 109.882C90.4686 109.882 89.6088 109.658 88.9572 109.211C88.3057 108.76 87.9175 108.133 87.7925 107.33L89.7981 107.137C89.8891 107.531 90.0822 107.829 90.3777 108.029C90.6731 108.23 91.0576 108.33 91.5311 108.33C92.0197 108.33 92.4118 108.23 92.7072 108.029C93.0065 107.829 93.1561 107.58 93.1561 107.285C93.1561 107.035 93.0595 106.829 92.8663 106.666C92.6769 106.503 92.3815 106.378 91.98 106.291L90.4913 105.978C89.6542 105.804 89.0349 105.51 88.6334 105.097C88.2319 104.681 88.033 104.154 88.0368 103.518C88.033 102.98 88.1788 102.514 88.4743 102.12C88.7735 101.722 89.1883 101.416 89.7186 101.2C90.2527 100.98 90.8682 100.87 91.5652 100.87C92.5879 100.87 93.3928 101.088 93.98 101.524C94.5709 101.959 94.9364 102.548 95.0766 103.291ZM106.753 112.984V108.336H106.667C106.561 108.548 106.408 108.774 106.207 109.012C106.006 109.247 105.741 109.448 105.412 109.615C105.082 109.781 104.667 109.865 104.167 109.865C103.482 109.865 102.868 109.688 102.327 109.336C101.785 108.984 101.357 108.472 101.042 107.802C100.728 107.132 100.571 106.317 100.571 105.359C100.571 104.389 100.73 103.571 101.048 102.904C101.37 102.234 101.804 101.728 102.349 101.387C102.895 101.043 103.503 100.87 104.173 100.87C104.685 100.87 105.105 100.957 105.435 101.132C105.764 101.302 106.025 101.508 106.219 101.751C106.412 101.99 106.561 102.215 106.667 102.427H106.792V100.984H108.815V112.984H106.753ZM104.741 108.177C105.177 108.177 105.548 108.06 105.855 107.825C106.162 107.586 106.395 107.255 106.554 106.83C106.713 106.406 106.792 105.912 106.792 105.347C106.792 104.783 106.713 104.293 106.554 103.876C106.399 103.459 106.167 103.135 105.861 102.904C105.558 102.673 105.185 102.558 104.741 102.558C104.283 102.558 103.9 102.677 103.594 102.916C103.287 103.154 103.056 103.484 102.9 103.904C102.745 104.325 102.667 104.806 102.667 105.347C102.667 105.893 102.745 106.38 102.9 106.808C103.06 107.232 103.292 107.567 103.599 107.813C103.91 108.056 104.291 108.177 104.741 108.177ZM116.491 106.041V100.984H118.548V109.711H116.554V108.16H116.463C116.266 108.649 115.942 109.048 115.491 109.359C115.044 109.669 114.493 109.825 113.838 109.825C113.266 109.825 112.76 109.698 112.321 109.444C111.885 109.186 111.544 108.813 111.298 108.325C111.052 107.832 110.929 107.238 110.929 106.541V100.984H112.986V106.222C112.986 106.776 113.137 107.215 113.44 107.541C113.743 107.866 114.141 108.029 114.633 108.029C114.936 108.029 115.23 107.955 115.514 107.808C115.798 107.66 116.031 107.44 116.213 107.149C116.399 106.853 116.491 106.484 116.491 106.041ZM124.527 109.882C123.652 109.882 122.896 109.7 122.26 109.336C121.627 108.969 121.14 108.45 120.8 107.779C120.459 107.105 120.288 106.311 120.288 105.399C120.288 104.501 120.459 103.713 120.8 103.035C121.144 102.353 121.625 101.823 122.243 101.444C122.86 101.061 123.586 100.87 124.419 100.87C124.957 100.87 125.464 100.957 125.942 101.132C126.423 101.302 126.847 101.567 127.214 101.927C127.586 102.287 127.877 102.745 128.089 103.302C128.301 103.855 128.408 104.514 128.408 105.279V105.91H121.254V104.524H126.436C126.432 104.13 126.347 103.779 126.18 103.472C126.014 103.162 125.781 102.918 125.481 102.74C125.186 102.561 124.841 102.472 124.447 102.472C124.027 102.472 123.658 102.575 123.339 102.779C123.021 102.98 122.773 103.245 122.595 103.575C122.421 103.901 122.332 104.258 122.328 104.649V105.859C122.328 106.366 122.421 106.802 122.606 107.166C122.792 107.526 123.051 107.802 123.385 107.995C123.718 108.185 124.108 108.279 124.555 108.279C124.854 108.279 125.125 108.238 125.368 108.154C125.61 108.067 125.82 107.94 125.998 107.774C126.176 107.607 126.311 107.401 126.402 107.154L128.322 107.37C128.201 107.878 127.97 108.321 127.629 108.7C127.292 109.075 126.86 109.366 126.334 109.575C125.807 109.779 125.205 109.882 124.527 109.882ZM137.912 113.166C137.173 113.166 136.539 113.065 136.008 112.865C135.478 112.668 135.052 112.402 134.73 112.069C134.408 111.736 134.185 111.366 134.06 110.961L135.912 110.512C135.995 110.683 136.116 110.851 136.275 111.018C136.435 111.188 136.649 111.329 136.917 111.438C137.19 111.552 137.533 111.609 137.946 111.609C138.529 111.609 139.012 111.467 139.395 111.183C139.777 110.902 139.969 110.44 139.969 109.796V108.143H139.866C139.76 108.355 139.605 108.573 139.4 108.796C139.2 109.02 138.933 109.207 138.599 109.359C138.27 109.51 137.855 109.586 137.355 109.586C136.685 109.586 136.077 109.429 135.531 109.115C134.989 108.796 134.558 108.323 134.236 107.694C133.917 107.061 133.758 106.27 133.758 105.319C133.758 104.361 133.917 103.552 134.236 102.893C134.558 102.23 134.991 101.728 135.537 101.387C136.082 101.043 136.69 100.87 137.361 100.87C137.872 100.87 138.292 100.957 138.622 101.132C138.955 101.302 139.22 101.508 139.417 101.751C139.614 101.99 139.764 102.215 139.866 102.427H139.98V100.984H142.008V109.853C142.008 110.599 141.83 111.217 141.474 111.705C141.118 112.194 140.631 112.56 140.014 112.802C139.397 113.044 138.696 113.166 137.912 113.166ZM137.929 107.972C138.364 107.972 138.736 107.866 139.042 107.654C139.349 107.442 139.582 107.137 139.741 106.74C139.9 106.342 139.98 105.865 139.98 105.308C139.98 104.758 139.9 104.277 139.741 103.865C139.586 103.452 139.355 103.132 139.048 102.904C138.745 102.673 138.372 102.558 137.929 102.558C137.47 102.558 137.088 102.677 136.781 102.916C136.474 103.154 136.243 103.482 136.088 103.899C135.933 104.311 135.855 104.781 135.855 105.308C135.855 105.842 135.933 106.31 136.088 106.711C136.247 107.109 136.48 107.419 136.787 107.643C137.097 107.863 137.478 107.972 137.929 107.972ZM147.98 109.882C147.105 109.882 146.349 109.7 145.713 109.336C145.08 108.969 144.594 108.45 144.253 107.779C143.912 107.105 143.741 106.311 143.741 105.399C143.741 104.501 143.912 103.713 144.253 103.035C144.597 102.353 145.078 101.823 145.696 101.444C146.313 101.061 147.039 100.87 147.872 100.87C148.41 100.87 148.917 100.957 149.395 101.132C149.876 101.302 150.3 101.567 150.667 101.927C151.039 102.287 151.33 102.745 151.542 103.302C151.755 103.855 151.861 104.514 151.861 105.279V105.91H144.707V104.524H149.889C149.885 104.13 149.8 103.779 149.633 103.472C149.467 103.162 149.234 102.918 148.935 102.74C148.639 102.561 148.294 102.472 147.9 102.472C147.48 102.472 147.111 102.575 146.792 102.779C146.474 102.98 146.226 103.245 146.048 103.575C145.874 103.901 145.785 104.258 145.781 104.649V105.859C145.781 106.366 145.874 106.802 146.06 107.166C146.245 107.526 146.505 107.802 146.838 107.995C147.171 108.185 147.561 108.279 148.008 108.279C148.308 108.279 148.578 108.238 148.821 108.154C149.063 108.067 149.274 107.94 149.452 107.774C149.63 107.607 149.764 107.401 149.855 107.154L151.775 107.37C151.654 107.878 151.423 108.321 151.082 108.7C150.745 109.075 150.313 109.366 149.787 109.575C149.26 109.779 148.658 109.882 147.98 109.882ZM153.601 109.711V100.984H155.595V102.438H155.686C155.845 101.935 156.118 101.546 156.504 101.274C156.894 100.997 157.339 100.859 157.839 100.859C157.953 100.859 158.08 100.865 158.22 100.876C158.364 100.883 158.483 100.897 158.578 100.916V102.808C158.491 102.777 158.353 102.751 158.163 102.728C157.978 102.702 157.798 102.688 157.623 102.688C157.248 102.688 156.911 102.77 156.612 102.933C156.317 103.092 156.084 103.313 155.913 103.597C155.743 103.882 155.658 104.209 155.658 104.58V109.711H153.601ZM162.3 109.887C161.747 109.887 161.248 109.789 160.805 109.592C160.366 109.391 160.017 109.096 159.76 108.705C159.506 108.315 159.379 107.834 159.379 107.262C159.379 106.77 159.47 106.363 159.652 106.041C159.834 105.719 160.082 105.461 160.396 105.268C160.711 105.075 161.065 104.929 161.459 104.83C161.856 104.728 162.267 104.654 162.692 104.609C163.203 104.556 163.618 104.508 163.936 104.467C164.254 104.421 164.485 104.353 164.629 104.262C164.777 104.168 164.851 104.022 164.851 103.825V103.791C164.851 103.363 164.724 103.031 164.47 102.796C164.216 102.561 163.851 102.444 163.373 102.444C162.87 102.444 162.47 102.554 162.175 102.774C161.883 102.993 161.686 103.253 161.584 103.552L159.663 103.279C159.815 102.749 160.065 102.306 160.413 101.95C160.762 101.59 161.188 101.321 161.692 101.143C162.195 100.961 162.752 100.87 163.362 100.87C163.783 100.87 164.201 100.919 164.618 101.018C165.034 101.116 165.415 101.279 165.76 101.507C166.104 101.73 166.381 102.035 166.589 102.421C166.801 102.808 166.908 103.291 166.908 103.87V109.711H164.93V108.512H164.862C164.737 108.755 164.561 108.982 164.334 109.194C164.11 109.402 163.828 109.571 163.487 109.7C163.15 109.825 162.754 109.887 162.3 109.887ZM162.834 108.376C163.247 108.376 163.604 108.294 163.908 108.132C164.211 107.965 164.444 107.745 164.606 107.472C164.773 107.2 164.856 106.902 164.856 106.58V105.552C164.792 105.605 164.682 105.654 164.527 105.7C164.375 105.745 164.205 105.785 164.015 105.819C163.826 105.853 163.639 105.883 163.453 105.91C163.267 105.936 163.106 105.959 162.97 105.978C162.663 106.02 162.389 106.088 162.146 106.183C161.904 106.277 161.712 106.41 161.572 106.58C161.432 106.747 161.362 106.963 161.362 107.228C161.362 107.607 161.5 107.893 161.777 108.086C162.053 108.279 162.406 108.376 162.834 108.376ZM168.976 109.711V100.984H170.942V102.467H171.044C171.226 101.967 171.527 101.577 171.947 101.296C172.368 101.012 172.87 100.87 173.453 100.87C174.044 100.87 174.542 101.014 174.947 101.302C175.356 101.586 175.644 101.974 175.811 102.467H175.902C176.095 101.982 176.421 101.596 176.879 101.308C177.341 101.016 177.889 100.87 178.521 100.87C179.324 100.87 179.979 101.124 180.487 101.632C180.995 102.139 181.248 102.88 181.248 103.853V109.711H179.186V104.171C179.186 103.63 179.042 103.234 178.754 102.984C178.466 102.73 178.114 102.603 177.697 102.603C177.201 102.603 176.813 102.758 176.533 103.069C176.256 103.376 176.118 103.776 176.118 104.268V109.711H174.101V104.086C174.101 103.635 173.964 103.276 173.692 103.007C173.423 102.738 173.07 102.603 172.635 102.603C172.339 102.603 172.07 102.679 171.828 102.83C171.586 102.978 171.392 103.188 171.248 103.461C171.104 103.73 171.033 104.044 171.033 104.404V109.711H168.976ZM54.73 133.882C53.855 133.882 53.0993 133.7 52.4629 133.336C51.8303 132.969 51.3436 132.45 51.0027 131.779C50.6618 131.105 50.4913 130.311 50.4913 129.399C50.4913 128.501 50.6618 127.713 51.0027 127.035C51.3474 126.353 51.8284 125.823 52.4459 125.444C53.0633 125.061 53.7887 124.87 54.622 124.87C55.1599 124.87 55.6675 124.957 56.1447 125.132C56.6258 125.302 57.05 125.567 57.4175 125.927C57.7887 126.287 58.0803 126.745 58.2925 127.302C58.5046 127.855 58.6106 128.514 58.6106 129.279V129.91H51.4572V128.524H56.6391C56.6353 128.13 56.55 127.779 56.3834 127.472C56.2167 127.162 55.9838 126.918 55.6845 126.74C55.3891 126.561 55.0444 126.472 54.6504 126.472C54.23 126.472 53.8606 126.575 53.5425 126.779C53.2243 126.98 52.9762 127.245 52.7981 127.575C52.6239 127.901 52.5349 128.258 52.5311 128.649V129.859C52.5311 130.366 52.6239 130.802 52.8095 131.166C52.9951 131.526 53.2546 131.802 53.5879 131.995C53.9213 132.185 54.3114 132.279 54.7584 132.279C55.0576 132.279 55.3284 132.238 55.5709 132.154C55.8133 132.067 56.0235 131.94 56.2016 131.774C56.3796 131.607 56.5141 131.401 56.605 131.154L58.5254 131.37C58.4042 131.878 58.1731 132.321 57.8322 132.7C57.4951 133.075 57.0633 133.366 56.5368 133.575C56.0103 133.779 55.408 133.882 54.73 133.882ZM61.845 124.984L63.6064 128.205L65.3962 124.984H67.5723L64.9416 129.347L67.6177 133.711H65.453L63.6064 130.569L61.7768 133.711H59.595L62.2541 129.347L59.6632 124.984H61.845ZM69.1632 136.984V124.984H71.1859V126.427H71.3052C71.4113 126.215 71.5609 125.99 71.7541 125.751C71.9473 125.508 72.2087 125.302 72.5382 125.132C72.8677 124.957 73.2882 124.87 73.7996 124.87C74.4738 124.87 75.0818 125.043 75.6234 125.387C76.1689 125.728 76.6007 126.234 76.9189 126.904C77.2409 127.571 77.4018 128.389 77.4018 129.359C77.4018 130.317 77.2446 131.132 76.9302 131.802C76.6159 132.472 76.1878 132.984 75.6462 133.336C75.1045 133.688 74.4909 133.865 73.8052 133.865C73.3052 133.865 72.8905 133.781 72.5609 133.615C72.2314 133.448 71.9662 133.247 71.7655 133.012C71.5685 132.774 71.4151 132.548 71.3052 132.336H71.22V136.984H69.1632ZM71.1802 129.347C71.1802 129.912 71.2598 130.406 71.4189 130.83C71.5818 131.255 71.8147 131.586 72.1177 131.825C72.4246 132.06 72.7958 132.177 73.2314 132.177C73.6859 132.177 74.0666 132.056 74.3734 131.813C74.6802 131.567 74.9113 131.232 75.0666 130.808C75.2257 130.38 75.3052 129.893 75.3052 129.347C75.3052 128.806 75.2276 128.325 75.0723 127.904C74.917 127.484 74.6859 127.154 74.3791 126.916C74.0723 126.677 73.6897 126.558 73.2314 126.558C72.792 126.558 72.4189 126.673 72.1121 126.904C71.8052 127.135 71.5723 127.459 71.4132 127.876C71.2579 128.293 71.1802 128.783 71.1802 129.347ZM83.0268 133.882C82.1518 133.882 81.3962 133.7 80.7598 133.336C80.1272 132.969 79.6405 132.45 79.2996 131.779C78.9587 131.105 78.7882 130.311 78.7882 129.399C78.7882 128.501 78.9587 127.713 79.2996 127.035C79.6443 126.353 80.1253 125.823 80.7427 125.444C81.3602 125.061 82.0856 124.87 82.9189 124.87C83.4568 124.87 83.9643 124.957 84.4416 125.132C84.9227 125.302 85.3469 125.567 85.7143 125.927C86.0856 126.287 86.3772 126.745 86.5893 127.302C86.8015 127.855 86.9075 128.514 86.9075 129.279V129.91H79.7541V128.524H84.9359C84.9321 128.13 84.8469 127.779 84.6802 127.472C84.5136 127.162 84.2806 126.918 83.9814 126.74C83.6859 126.561 83.3412 126.472 82.9473 126.472C82.5268 126.472 82.1575 126.575 81.8393 126.779C81.5212 126.98 81.2731 127.245 81.095 127.575C80.9208 127.901 80.8318 128.258 80.828 128.649V129.859C80.828 130.366 80.9208 130.802 81.1064 131.166C81.292 131.526 81.5515 131.802 81.8848 131.995C82.2181 132.185 82.6083 132.279 83.0552 132.279C83.3545 132.279 83.6253 132.238 83.8677 132.154C84.1102 132.067 84.3204 131.94 84.4984 131.774C84.6765 131.607 84.8109 131.401 84.9018 131.154L86.8223 131.37C86.7011 131.878 86.47 132.321 86.1291 132.7C85.792 133.075 85.3602 133.366 84.8337 133.575C84.3071 133.779 83.7049 133.882 83.0268 133.882ZM88.6476 133.711V124.984H90.6419V126.438H90.7328C90.8919 125.935 91.1646 125.546 91.551 125.274C91.9411 124.997 92.3862 124.859 92.8862 124.859C92.9999 124.859 93.1267 124.865 93.2669 124.876C93.4108 124.883 93.5302 124.897 93.6249 124.916V126.808C93.5377 126.777 93.3995 126.751 93.2101 126.728C93.0245 126.702 92.8445 126.688 92.6703 126.688C92.2953 126.688 91.9582 126.77 91.6589 126.933C91.3635 127.092 91.1305 127.313 90.9601 127.597C90.7896 127.882 90.7044 128.209 90.7044 128.58V133.711H88.6476ZM94.9913 133.711V124.984H97.0481V133.711H94.9913ZM96.0254 123.745C95.6997 123.745 95.4194 123.637 95.1845 123.421C94.9497 123.202 94.8322 122.938 94.8322 122.632C94.8322 122.321 94.9497 122.058 95.1845 121.842C95.4194 121.622 95.6997 121.512 96.0254 121.512C96.355 121.512 96.6353 121.622 96.8663 121.842C97.1012 122.058 97.2186 122.321 97.2186 122.632C97.2186 122.938 97.1012 123.202 96.8663 123.421C96.6353 123.637 96.355 123.745 96.0254 123.745ZM103.027 133.882C102.152 133.882 101.396 133.7 100.76 133.336C100.127 132.969 99.6405 132.45 99.2996 131.779C98.9587 131.105 98.7882 130.311 98.7882 129.399C98.7882 128.501 98.9587 127.713 99.2996 127.035C99.6443 126.353 100.125 125.823 100.743 125.444C101.36 125.061 102.086 124.87 102.919 124.87C103.457 124.87 103.964 124.957 104.442 125.132C104.923 125.302 105.347 125.567 105.714 125.927C106.086 126.287 106.377 126.745 106.589 127.302C106.801 127.855 106.908 128.514 106.908 129.279V129.91H99.7541V128.524H104.936C104.932 128.13 104.847 127.779 104.68 127.472C104.514 127.162 104.281 126.918 103.981 126.74C103.686 126.561 103.341 126.472 102.947 126.472C102.527 126.472 102.158 126.575 101.839 126.779C101.521 126.98 101.273 127.245 101.095 127.575C100.921 127.901 100.832 128.258 100.828 128.649V129.859C100.828 130.366 100.921 130.802 101.106 131.166C101.292 131.526 101.551 131.802 101.885 131.995C102.218 132.185 102.608 132.279 103.055 132.279C103.354 132.279 103.625 132.238 103.868 132.154C104.11 132.067 104.32 131.94 104.498 131.774C104.676 131.607 104.811 131.401 104.902 131.154L106.822 131.37C106.701 131.878 106.47 132.321 106.129 132.7C105.792 133.075 105.36 133.366 104.834 133.575C104.307 133.779 103.705 133.882 103.027 133.882ZM104.015 123.938L102.862 122.484L101.709 123.938H99.9075V123.859L102.061 121.404H103.669L105.817 123.859V123.938H104.015ZM110.704 128.597V133.711H108.648V124.984H110.613V126.467H110.716C110.917 125.978 111.237 125.59 111.676 125.302C112.119 125.014 112.667 124.87 113.318 124.87C113.92 124.87 114.445 124.999 114.892 125.257C115.343 125.514 115.691 125.887 115.937 126.376C116.187 126.865 116.31 127.457 116.307 128.154V133.711H114.25V128.472C114.25 127.889 114.098 127.433 113.795 127.103C113.496 126.774 113.081 126.609 112.551 126.609C112.191 126.609 111.871 126.688 111.591 126.847C111.314 127.003 111.096 127.228 110.937 127.524C110.782 127.819 110.704 128.177 110.704 128.597ZM122.204 133.882C121.333 133.882 120.585 133.69 119.96 133.308C119.339 132.925 118.86 132.397 118.523 131.722C118.189 131.044 118.023 130.264 118.023 129.382C118.023 128.495 118.193 127.713 118.534 127.035C118.875 126.353 119.356 125.823 119.977 125.444C120.602 125.061 121.341 124.87 122.193 124.87C122.901 124.87 123.528 125.001 124.074 125.262C124.623 125.52 125.06 125.885 125.386 126.359C125.712 126.829 125.898 127.378 125.943 128.007H123.977C123.898 127.586 123.708 127.236 123.409 126.955C123.113 126.671 122.718 126.529 122.221 126.529C121.801 126.529 121.432 126.643 121.113 126.87C120.795 127.094 120.547 127.416 120.369 127.836C120.195 128.257 120.108 128.76 120.108 129.347C120.108 129.942 120.195 130.454 120.369 130.882C120.543 131.306 120.788 131.633 121.102 131.865C121.42 132.092 121.793 132.205 122.221 132.205C122.524 132.205 122.795 132.149 123.034 132.035C123.276 131.918 123.479 131.749 123.642 131.529C123.805 131.31 123.917 131.043 123.977 130.728H125.943C125.894 131.346 125.712 131.893 125.398 132.37C125.083 132.844 124.655 133.215 124.113 133.484C123.572 133.749 122.935 133.882 122.204 133.882ZM127.632 133.711V124.984H129.689V133.711H127.632ZM128.666 123.745C128.34 123.745 128.06 123.637 127.825 123.421C127.59 123.202 127.473 122.938 127.473 122.632C127.473 122.321 127.59 122.058 127.825 121.842C128.06 121.622 128.34 121.512 128.666 121.512C128.996 121.512 129.276 121.622 129.507 121.842C129.742 122.058 129.859 122.321 129.859 122.632C129.859 122.938 129.742 123.202 129.507 123.421C129.276 123.637 128.996 123.745 128.666 123.745ZM134.315 133.887C133.762 133.887 133.264 133.789 132.821 133.592C132.381 133.391 132.033 133.096 131.775 132.705C131.522 132.315 131.395 131.834 131.395 131.262C131.395 130.77 131.486 130.363 131.667 130.041C131.849 129.719 132.097 129.461 132.412 129.268C132.726 129.075 133.08 128.929 133.474 128.83C133.872 128.728 134.283 128.654 134.707 128.609C135.219 128.556 135.633 128.508 135.952 128.467C136.27 128.421 136.501 128.353 136.645 128.262C136.792 128.168 136.866 128.022 136.866 127.825V127.791C136.866 127.363 136.739 127.031 136.486 126.796C136.232 126.561 135.866 126.444 135.389 126.444C134.885 126.444 134.486 126.554 134.19 126.774C133.899 126.993 133.702 127.253 133.599 127.552L131.679 127.279C131.83 126.749 132.08 126.306 132.429 125.95C132.777 125.59 133.203 125.321 133.707 125.143C134.211 124.961 134.768 124.87 135.378 124.87C135.798 124.87 136.217 124.919 136.633 125.018C137.05 125.116 137.431 125.279 137.775 125.507C138.12 125.73 138.397 126.035 138.605 126.421C138.817 126.808 138.923 127.291 138.923 127.87V133.711H136.946V132.512H136.878C136.753 132.755 136.577 132.982 136.349 133.194C136.126 133.402 135.844 133.571 135.503 133.7C135.166 133.825 134.77 133.887 134.315 133.887ZM134.849 132.376C135.262 132.376 135.62 132.294 135.923 132.132C136.226 131.965 136.459 131.745 136.622 131.472C136.789 131.2 136.872 130.902 136.872 130.58V129.552C136.808 129.605 136.698 129.654 136.542 129.7C136.391 129.745 136.22 129.785 136.031 129.819C135.842 129.853 135.654 129.883 135.469 129.91C135.283 129.936 135.122 129.959 134.986 129.978C134.679 130.02 134.404 130.088 134.162 130.183C133.919 130.277 133.728 130.41 133.588 130.58C133.448 130.747 133.378 130.963 133.378 131.228C133.378 131.607 133.516 131.893 133.792 132.086C134.069 132.279 134.421 132.376 134.849 132.376ZM147.889 127.291L146.014 127.495C145.961 127.306 145.868 127.128 145.736 126.961C145.607 126.794 145.433 126.66 145.213 126.558C144.993 126.455 144.724 126.404 144.406 126.404C143.978 126.404 143.618 126.497 143.327 126.683C143.039 126.868 142.897 127.109 142.9 127.404C142.897 127.658 142.989 127.865 143.179 128.024C143.372 128.183 143.69 128.313 144.133 128.416L145.622 128.734C146.448 128.912 147.061 129.194 147.463 129.58C147.868 129.967 148.073 130.472 148.077 131.097C148.073 131.647 147.912 132.132 147.594 132.552C147.279 132.969 146.842 133.294 146.281 133.529C145.72 133.764 145.077 133.882 144.349 133.882C143.281 133.882 142.421 133.658 141.77 133.211C141.118 132.76 140.73 132.133 140.605 131.33L142.611 131.137C142.702 131.531 142.895 131.829 143.19 132.029C143.486 132.23 143.87 132.33 144.344 132.33C144.832 132.33 145.224 132.23 145.52 132.029C145.819 131.829 145.969 131.58 145.969 131.285C145.969 131.035 145.872 130.829 145.679 130.666C145.489 130.503 145.194 130.378 144.792 130.291L143.304 129.978C142.467 129.804 141.847 129.51 141.446 129.097C141.044 128.681 140.845 128.154 140.849 127.518C140.845 126.98 140.991 126.514 141.287 126.12C141.586 125.722 142.001 125.416 142.531 125.2C143.065 124.98 143.681 124.87 144.378 124.87C145.4 124.87 146.205 125.088 146.792 125.524C147.383 125.959 147.749 126.548 147.889 127.291ZM151.04 133.836C150.695 133.836 150.399 133.715 150.153 133.472C149.907 133.23 149.786 132.935 149.79 132.586C149.786 132.245 149.907 131.954 150.153 131.711C150.399 131.469 150.695 131.347 151.04 131.347C151.373 131.347 151.663 131.469 151.909 131.711C152.159 131.954 152.286 132.245 152.29 132.586C152.286 132.817 152.225 133.027 152.108 133.217C151.994 133.406 151.843 133.558 151.653 133.671C151.468 133.781 151.263 133.836 151.04 133.836Z" fill="white"/>
<defs>
<linearGradient id="paint0_linear_1_2" x1="346.808" y1="357.195" x2="26.5328" y2="33.9625" gradientUnits="userSpaceOnUse">
<stop stop-color="#0066FF"/>
<stop offset="1" stop-color="#0066FF" stop-opacity="0"/>
</linearGradient>
</defs>
</svg>
