<svg width="121" height="123" viewBox="0 0 121 123" fill="none" xmlns="http://www.w3.org/2000/svg">
<path d="M74.206 11.6527L77.9998 0.474594L80.4319 1.30015L77.3192 10.4689L82.1534 12.1098L81.4717 14.1192L74.206 11.6527Z" fill="#0066FF"/>
<path d="M89.0635 11.1753C91.2121 8.25973 94.7033 7.79888 97.7204 10.0226C100.728 12.2361 101.319 15.7065 99.1707 18.6225C97.0222 21.5386 93.5308 21.9989 90.5272 19.7854C87.5112 17.5617 86.9161 14.0919 89.0635 11.1753ZM97.0538 17.0611C98.4547 15.1602 98.206 12.9961 96.4721 11.7178C94.7248 10.4287 92.5967 10.8455 91.1964 12.7463C89.7962 14.6472 90.0411 16.7898 91.7873 18.0768C93.5217 19.3525 95.6551 18.9625 97.0517 17.0611H97.0538Z" fill="#0066FF"/>
<path d="M99.9377 28.4353L98.38 26.1944L110.926 23.5678L112.281 25.5203L105.428 36.3531L103.863 34.0971L105.128 32.1705L102.182 27.9228L99.9377 28.4353ZM104.379 27.3927L106.407 30.3158L109.003 26.3603L104.379 27.3927Z" fill="#0066FF"/>
<path d="M116.076 49.7253C112.685 50.6922 109.741 49.0926 108.783 45.7329L107.459 41.0841L118.811 37.8479L120.136 42.4967C121.093 45.8564 119.451 48.7628 116.076 49.7253ZM115.349 47.1788C117.528 46.5579 118.635 44.9154 118.114 43.0897L117.489 40.8961L110.202 42.9731L110.828 45.1667C111.348 46.9924 113.156 47.8024 115.349 47.1783V47.1788Z" fill="#0066FF"/>
<path d="M108.434 74.6512L119.338 79.1631L116.186 86.7823L114.24 85.9766L116.411 80.7299L113.95 79.7094L111.988 84.4565L110.028 83.6454L111.991 78.8999L109.413 77.8337L107.2 83.1835L105.24 82.3724L108.434 74.6512Z" fill="#0066FF"/>
<path d="M103.465 87.8866L104.212 89.7128C103.158 89.8825 102.204 90.4364 101.535 91.2678C100.667 92.3512 100.925 93.0478 101.322 93.3674C101.92 93.846 102.411 93.7698 103.797 92.8572L104.515 92.3695C105.804 91.5235 107.34 90.8118 108.995 92.1369C110.725 93.5238 110.754 95.756 109.178 97.723C108.328 98.7548 107.147 99.4616 105.836 99.7243L105.143 97.7585C106.085 97.5986 106.94 97.1103 107.556 96.3802C108.304 95.4477 108.049 94.7726 107.625 94.4326C107.215 94.1038 106.816 93.9884 105.587 94.7817L104.846 95.2716C103.324 96.2792 101.584 96.9705 99.8162 95.553C98.4976 94.4959 97.9836 92.3061 99.8093 90.0281C100.713 88.8779 102.02 88.1127 103.465 87.8866Z" fill="#0066FF"/>
<path d="M88.8355 100.34L90.9201 98.866L96.5218 106.784L99.4126 104.738L100.629 106.457L92.763 112.022L91.5469 110.304L94.4377 108.258L88.8355 100.34Z" fill="#0066FF"/>
<path d="M76.197 106.229C79.1926 105.279 81.788 106.447 82.6372 109.123L84.8308 116.042L82.3976 116.813L80.2383 110.002C80.0217 109.318 79.5424 108.748 78.9057 108.418C78.2691 108.087 77.5272 108.024 76.8434 108.24C76.1597 108.457 75.5899 108.936 75.2595 109.573C74.9292 110.209 74.8653 110.951 75.0819 111.635L77.2412 118.447L74.809 119.219L72.6154 112.3C71.7678 109.624 73.2009 107.179 76.197 106.229ZM77.0467 122.525L79.7861 121.658L81.0752 118.489L79.3123 119.048L77.0467 122.525Z" fill="#0066FF"/>
<path d="M54.1146 114.388C54.222 110.865 56.6391 108.545 60.1304 108.651L64.9608 108.797L64.6026 120.594L59.7732 120.448C56.2792 120.341 54.0077 117.895 54.1146 114.388ZM56.7605 114.468C56.6923 116.732 57.9212 118.285 59.8184 118.342L62.0974 118.411L62.3272 110.838L60.0471 110.769C58.1511 110.713 56.8298 112.189 56.7605 114.469V114.468Z" fill="#0066FF"/>
<path d="M45.1137 118.266L42.6521 117.533L46.0273 106.219L48.4885 106.954L45.1137 118.266Z" fill="#0066FF"/>
<path d="M37.2091 109.384C35.2755 112.446 31.8266 113.152 28.6586 111.149C25.5046 109.154 24.6646 105.736 26.6009 102.675C28.5372 99.6148 31.9835 98.9079 35.138 100.903C38.3028 102.906 39.1444 106.322 37.2091 109.384ZM28.8246 104.083C27.5629 106.077 27.9652 108.218 29.7833 109.37C31.616 110.528 33.7092 109.965 34.9715 107.97C36.2337 105.974 35.8368 103.856 34.0046 102.696C32.1843 101.545 30.0847 102.086 28.8246 104.082V104.083Z" fill="#0066FF"/>
<path d="M10.3767 81.3267C6.91063 82.3767 3.83988 80.6563 2.75327 77.0689C1.6715 73.4964 3.27212 70.3612 6.73766 69.3117C10.2032 68.2622 13.275 69.982 14.3568 73.555C15.4428 77.1424 13.8417 80.2782 10.3767 81.3267ZM7.50034 71.8308C5.24119 72.5151 4.14442 74.3972 4.76802 76.4587C5.39754 78.5347 7.34996 79.4768 9.60911 78.793C11.8683 78.1093 12.9549 76.246 12.3254 74.1695C11.7012 72.1085 9.76003 71.1465 7.50034 71.8308Z" fill="#0066FF"/>
<path d="M12.4735 52.165L4.5412 58.856L12.0073 59.2954L11.8408 61.8575L0.0626278 61.0899L0.16688 59.4979L8.10018 52.7913L0.634177 52.368L0.800127 49.821L12.5772 50.5896L12.4735 52.165Z" fill="#0066FF"/>
<path d="M14.3443 44.3326L3.36115 40.0125L4.30165 37.6228L13.3104 41.1678L15.1785 36.4186L17.153 37.1953L14.3443 44.3326Z" fill="#0066FF"/>
<path d="M10.326 25.8023L11.7822 23.6876L21.5042 30.3797L20.0475 32.4938L10.326 25.8023Z" fill="#0066FF"/>
<path d="M32.9215 18.9378L22.6038 17.8018L27.4331 23.5163L25.4613 25.1615L17.8986 16.0975L19.1243 15.0769L29.4538 16.2049L24.6116 10.5006L26.5721 8.86612L34.1364 17.9237L32.9215 18.9378Z" fill="#0066FF"/>
<path d="M39.8361 14.8712L35.5354 3.87833L43.2163 0.873123L43.9833 2.83417L38.6947 4.90318L39.6653 7.38418L44.449 5.5123L45.2219 7.48784L40.4377 9.35972L41.455 11.9594L46.8483 9.84957L47.6212 11.8257L39.8361 14.8712Z" fill="#0066FF"/>
</svg>
