<svg width="806" height="240" viewBox="0 0 806 240" fill="none" xmlns="http://www.w3.org/2000/svg">
<path d="M248.417 0.578003C224.797 0.578003 201.708 7.58226 182.069 20.7046C162.429 33.827 147.122 52.4783 138.083 74.3C129.044 96.1218 126.679 120.134 131.287 143.3C135.894 166.466 147.268 187.745 163.97 204.447C180.671 221.149 201.95 232.524 225.116 237.132C248.282 241.741 272.294 239.376 294.116 230.338C315.938 221.3 334.59 205.993 347.713 186.355C360.836 166.716 367.841 143.626 367.841 120.007C367.842 104.323 364.753 88.7935 358.752 74.3038C352.751 59.8141 343.954 46.6481 332.864 35.5581C321.775 24.4681 308.609 15.6713 294.12 9.66936C279.63 3.66747 264.1 0.578003 248.417 0.578003ZM248.417 202.715C232.058 202.715 216.066 197.864 202.464 188.776C188.862 179.687 178.261 166.769 172.001 151.655C165.741 136.542 164.102 119.911 167.294 103.866C170.485 87.8216 178.363 73.084 189.931 61.5165C201.498 49.949 216.236 42.0713 232.281 38.8798C248.325 35.6883 264.956 37.3265 280.07 43.5868C295.183 49.8471 308.101 60.4484 317.19 74.0504C326.278 87.6523 331.129 103.644 331.129 120.003C331.124 141.936 322.408 162.969 306.897 178.477C291.386 193.984 270.35 202.696 248.417 202.696V202.715Z" fill="white"/>
<path d="M0.540588 239.426V0.592377H37.3343V202.73H147.398V239.446L0.540588 239.426Z" fill="white"/>
<path d="M805.459 119.983C805.459 191.009 758.012 239.408 688.294 239.408H598.25V0.577759H688.294C758.012 0.577759 805.459 48.6504 805.459 119.983ZM768.743 119.983C768.743 66.7252 735.171 37.3483 687.723 37.3483H635.036V202.618H687.723C735.171 202.622 768.743 172.903 768.743 119.987V119.983Z" fill="white"/>
<path d="M484.026 0.554382H447.228L349.134 239.411H385.924L412.091 173.606H518.304L545.329 239.411H582.119L484.026 0.554382ZM426.541 136.816L465.628 37.7906L503.195 136.816H426.541Z" fill="white"/>
<path opacity="0.2" d="M248.417 0.578003C253.284 0.578003 257.951 2.51168 261.392 5.95303C264.834 9.39439 266.767 14.0616 266.767 18.9284C266.767 23.7953 264.834 28.463 261.392 31.9043C257.951 35.3457 253.284 37.2789 248.417 37.2789C270.354 37.2789 291.392 45.9931 306.903 61.5047C322.415 77.0162 331.129 98.0547 331.129 119.991C331.122 123.634 330.877 127.271 330.395 130.882H367.329C367.651 127.292 367.845 123.667 367.845 119.991C367.841 88.3196 355.257 57.9463 332.86 35.5524C310.463 13.1586 280.089 0.578003 248.417 0.578003Z" fill="url(#paint0_linear_1_520)"/>
<defs>
<linearGradient id="paint0_linear_1_520" x1="308.131" y1="130.882" x2="308.131" y2="0.578003" gradientUnits="userSpaceOnUse">
<stop stop-color="white" stop-opacity="0"/>
<stop offset="0.185" stop-opacity="0.49"/>
<stop offset="0.598"/>
<stop offset="1"/>
</linearGradient>
</defs>
</svg>
